# xmcd CD database file
#
# Track frame offsets:
#	151
#	56782
#	168078
#	230419
#	280888
#
# Disc length: 4671 seconds
#
# Revision: 0
# Processed by: cddbd v1.5.1PL2 Copyright (c) Steve Scherf et al.
# Submitted via: CDex 1.51
#
DISCID=3d123d05
DTITLE=Miles Davis - Live Directions Switzerland 22_10_71
DYEAR=1971
DGENRE=Jazz
TTITLE0=Directions
TTITLE1=Honky-Tonk - Sivad
TTITLE2=What I Say
TTITLE3=Santuary
TTITLE4=Funky Tonk - Yes or No
EXTD=YEAR: 1971
EXTT0=
EXTT1=
EXTT2=
EXTT3=
EXTT4=
PLAYORDER=
